<svg xmlns="http://www.w3.org/2000/svg" xml:space="preserve" style="enable-background:new 0 0 64 64" viewBox="0 0 64 64"><style>.st1{fill:#735aa6}</style><path id="BG" d="M54 64H10C4.5 64 0 59.5 0 54V10C0 4.5 4.5 0 10 0h44c5.5 0 10 4.5 10 10v44c0 5.5-4.5 10-10 10z" style="fill:#242424"/><g id="FG"><path d="M21.2 11.4c-10.7 6.3-11.4 6.7-12.5 8.5C8 21.2 8 22.2 8 33.5c0 9.2.1 12.4.5 12.9.8 1.1 19.7 11.8 20.5 11.7.6-.1.7-1.3.8-11.7.1-9.2 0-11.7-.5-12.4-.3-.5-4.2-2.9-8.5-5.3s-8.2-4.9-8.5-5.4c-.8-1.1-.4-2.5.8-3.1.7-.3 2.7 0 9.2 1.7 4.6 1.2 8.9 2.2 9.6 2.2 1.9 0 21-10.9 21-12 0-.7-1.4-1.2-10.1-3.5-5.6-1.5-10.6-2.7-11.2-2.7-.6.1-5.3 2.5-10.4 5.5z" class="st1"/><path d="m47.7 18.6-1.4.9L49 21c1.5.8 2.7 1.8 2.7 2.2 0 .4-3.4 2.6-8.2 5.3-4.5 2.5-8.4 5-8.7 5.4-.5.7-.6 3-.5 12.4 0 10.5.1 11.7.7 11.8.8.1 19.7-10.6 20.5-11.6.4-.5.5-3.7.5-12.7s-.1-12.3-.5-12.8c-.7-.8-5.1-3.3-5.9-3.3-.3 0-1.1.4-1.9.9z" class="st1"/></g></svg>